<svg version="1" xmlns="http://www.w3.org/2000/svg" width="682.667" height="682.667" viewBox="0 0 512.000000 512.000000"><path d="M0 256v256h512V0H0v256zM87.4 53.9c1 1.1 1.6 2.8 1.4 3.8-.5 2.8-3.5 2.7-5.3-.1-3-4.6.3-7.7 3.9-3.7zm140.9-.3c.9.9-.4 3.4-1.8 3.4s-2.7-2.5-1.8-3.4c.4-.3 1.2-.6 1.8-.6.6 0 1.4.3 1.8.6zM171.1 80c21.7 4 35.2 21.5 41.1 53.5 3.1 16.5 3.1 45.6 0 57.8-5.3 21.1-16.6 39.2-29.7 47.5-17 10.8-43.8 7.3-61-8-13.1-11.8-21-29.1-23.5-51.9-3-27.2 10.6-62.7 32.5-84.4C143.1 82 156.2 77.3 171.1 80zm97.2 13.3c4.8 22.8 13 60.2 13.4 60.6 1.6 2 6-18.2 9.2-42.5 1.7-12.6 3.4-24.8 3.8-27.2l.6-4.2 4.6.5c19.2 2.2 31.4 3.8 36.3 4.7l5.6 1 .6 4.7c.8 6.4 2.4 50.4 3.7 103.1 1 42.5 1 44.5-.8 45.8-1.4 1.1-5.2 1.3-17 1-8.4-.2-15.4-.6-15.6-.8-.4-.4-1.2-9.3-4.4-45.5l-.6-8-3.3 15.5c-8.4 39.4-7.4 35.8-10.3 36.5-4.1.8-17.3 2.4-20.7 2.5-2.9 0-3.3-.4-4.2-4.3-.6-2.3-1.8-9.2-2.7-15.2-2.4-15.8-6.2-35.3-7.9-40.5l-1.4-4.5-.2 11c-.2 6-.5 20.9-.9 33l-.6 22-16-.2-16-.2v-4.3c.1-2.4.6-12.6 1.3-22.8.6-10.2 1.4-32.7 1.7-50 .9-46.9 2.9-71.2 6.4-77.9 1.2-2.2 7.2-4.1 18.6-5.6 15.4-2.2 13.6-3.5 16.8 11.8zm115.4 4.2c5.9 3 14.1 11.3 17.3 17.6 1.5 2.9 2.5 6.8 2.7 11.4.4 6 .1 7.7-1.9 11.5-3.3 6-8.5 9-15.9 9-15.7 0-28-11.5-28.1-26.4-.1-20.4 11.1-30.4 25.9-23.1zM91.6 99.1c2 1.7 1.8 4.8-1.6 19.4-2 8.5-3.5 13.3-4.6 14-26.8 16.3-31.7 22.8-31.8 42.5 0 9.7.2 11.1 2.8 16.4 5.2 10.5 14.2 14.4 30.6 13.2l8.5-.6 4.2 12.6 4.2 12.6-5.4 5.7c-2.9 3.1-7.9 7.2-11.1 9.1-5.6 3.4-6.2 3.5-15.4 3.5-8.9 0-9.9-.2-16-3.5-9.6-5.2-19-15.1-24-25.4-9-18.5-9.2-40-.8-65.5C41 123.7 57.8 104.4 79 98.3c4.9-1.4 10.4-1.1 12.6.8zM457 126c9.6 1.8 24 10.4 27.1 16.1.8 1.6.3 3.2-2.5 8.2-1.9 3.4-4.5 7.4-5.8 8.9-2.3 2.8-2.3 2.8-9.3 1.7-9-1.3-18.1-.3-22.3 2.4-5 3.4-8.4 11.5-9 21.3-.5 9.1.4 12.8 4.7 19.6 3.5 5.5 13.2 10.8 24.4 13.3l7.3 1.6 1.7 9c1 4.9 2 9.5 2.3 10.3.6 1.6-7.5 6.4-16.4 9.9-20.1 7.7-40.9-3.7-50.1-27.4-4.2-10.6-5.5-19.4-4.8-31.9 1.5-27.3 14.2-51.5 31.7-60.5 6.3-3.3 12.8-4.1 21-2.5zm-71.8 34.1l10.7 2.2-.5 18.6c-.5 17.7-2.7 53.2-4 63.3l-.6 4.6-8 2.2c-4.5 1.2-12.4 2.4-17.6 2.7l-9.5.6.6-22.2c.9-28.4 4.6-71.5 6.4-74.5.7-1.1 8.7-.2 22.5 2.5zm73.5 118.7c7.4 3.8 12.3 11.7 12.3 19.9 0 3.1-.2 3.2-10.7 7.3-6 2.3-11.2 4.2-11.7 4.3-.5.1-1.4-1.5-1.9-3.6-.5-2-1.7-4.2-2.6-4.7-2.6-1.3-8.4 1.9-9.5 5.2-1.8 5 .2 7.7 8.9 12.5 10.4 5.7 14 9.5 15.4 16.5 2.8 13.1-3.1 29.5-15.1 42.4-7.7 8.2-13.4 11.9-23.1 14.9-9.1 2.9-11.7 3.1-15.8.9-4.8-2.4-6.3-7.2-6.1-18.9.2-15.4.2-15.4 10.2-18.1 11.3-3.1 13-3.1 13 0 0 3.7 1.8 7.6 3.4 7.6 2.6 0 7.3-4.9 8-8.1.8-4.3-1.2-7.2-8.2-11.6-15.9-10-21.4-21-17.7-35.3 4.5-17.4 14.4-28.7 28.4-32.7 6.6-1.8 17.7-1.1 22.8 1.5zm-375.5 2.9c7.4 3.5 13.4 8.9 16.3 14.8 1.5 3.1 2 6.1 2 13 0 9.8-1.6 14.6-7.6 22.1l-2.9 3.7 2.4 1.6c7.7 5.1 11.6 16.1 11.7 32.7.1 27.2-13 37.8-36.4 29.7-11.4-3.9-15-7.4-17.6-17-2.1-8-7.2-41.7-9.1-60.3-.6-5.8-2.1-17.5-3.5-26-1.7-10.6-2.1-15.8-1.4-16.5 1.5-1.5 11.7-2.1 26.4-1.5 11.9.5 13.6.8 19.7 3.7zm93-.8c18 6.9 29.1 27 32.9 59.1 1.6 14.6.7 36.2-2.1 46.5-4.3 16-14.8 31.8-24.3 36.7-9.6 4.8-24.1 2.8-36.3-5-25.1-16.2-40.1-59.1-31.8-91 5.1-19.5 19.6-39.5 33.6-46.3 5.8-2.8 7-3 14.3-2.6 4.9.3 10.2 1.3 13.7 2.6zm105-1.8c8.6 1.9 15.4 5.7 20.9 11.7 9.5 10.4 14.2 23.9 16.1 46.4 2 23.4-1.5 44-10.5 61.2-4.5 8.6-11.8 18.4-17.1 22.8-11 9.1-26.8 10.9-40.5 4.5-5.7-2.6-16.7-13.6-20.3-20.2-6.3-11.9-10.8-31.7-10.8-48 0-23 10.8-49.3 26.9-65.5 12.5-12.7 21.3-15.9 35.3-12.9zm78 17.1l-.3 18.3 4.2-8c8.8-17.1 16.7-28.5 19.8-28.5 2.3 0 15.6 5.7 15.6 6.7 0 .4-3.9 8.7-8.7 18.3-9 18.1-16.8 36.9-16.8 40.4 0 1.1 4 10.2 9 20.3 7.9 16.1 13.7 30 12.8 30.8-.2.1-6.1 3.3-13.3 7-7.1 3.7-13.6 7.3-14.3 7.8-1 .8-1.6.7-2.1-.2-1-1.6-9.4-26.6-11.6-34.4-.9-3.2-2-5.6-2.3-5.2-.4.4-1 10.8-1.3 23.1-.4 17.7-.8 22.8-2 23.8-1.9 1.8-14.9 4.6-21.6 4.6-5.4 0-5.5 0-4.9-2.7.3-1.6 1.2-9.6 2.1-17.8.8-8.3 2.6-25.6 4-38.5 3.3-32.2 3.4-33.7 4.5-57.4.5-11.5 1.1-21.1 1.4-21.3.5-.5 21.8-5 24.6-5.2 1.3-.1 1.5 2.4 1.2 18.1zM475 322.5c0 .8-.7 1.5-1.5 1.5s-1.5-.7-1.5-1.5.7-1.5 1.5-1.5 1.5.7 1.5 1.5zm-20.4 120.6c1 1.7-1.3 3.6-2.7 2.2-1.2-1.2-.4-3.3 1.1-3.3.5 0 1.2.5 1.6 1.1zM336 450.5c0 .8-.6 1.5-1.4 1.5-1.7 0-2.8-1.4-1.9-2.4 1.2-1.2 3.3-.6 3.3.9z"/><path d="M154 123.5c-7 3.2-12.9 11-17.6 23-2.3 5.9-2.7 8.6-2.8 17.1-.1 9.3.1 10.5 2.9 15.9 2 4 4.5 6.9 7.3 9 3.8 2.6 5.2 3 11.2 3 6.1 0 7.2-.3 10.7-3.1 2.1-1.7 4.8-4.5 6-6.3 8.1-11.9 10-35.4 4-48.5-4.4-9.5-13.5-13.7-21.7-10.1zM61 306.1c.1 4.7 1.8 11.2 3.1 12 .8.5 3.3.9 5.6.9 5.4 0 7.5-2.1 7.1-6.9-.2-3-.9-3.9-3.8-5.3-1.9-.9-5.4-2-7.7-2.4-4.1-.6-4.3-.5-4.3 1.7zM66.2 354.4c.2 5.8.9 10 1.7 11 2 2.4 9.6 2.1 12.1-.4s2.5-5.3 0-10.8c-1.6-3.6-2.9-4.7-7.5-6.7-3.1-1.4-5.8-2.5-6.1-2.5-.4 0-.5 4.2-.2 9.4zm11.3 4c1.6 1.2 1.7 1.6.6 3-2.2 2.6-4.1 1.9-4.1-1.4s.7-3.7 3.5-1.6zM156.1 317.7c-4.8 2.4-10.5 11.7-12.6 20.4-4.4 17.9 2.6 35.4 15.6 38.9 5.2 1.4 8 .8 12.3-3 4.3-3.8 7.3-10.8 8.7-20.3 2-13.6-2.3-29.8-9.3-34.8-4-2.9-10.4-3.4-14.7-1.2zM267.5 318.4c-1.7.7-4.5 3-6.3 5-13.8 15.7-14.9 45.8-2.1 54.3 3.3 2.2 4.7 2.5 9.9 2.1 7-.5 10.6-3.2 14.5-10.8 4.4-8.8 5.7-15.3 5.4-27.4-.4-10-.7-11.6-3.2-15.9-4.6-7.9-11-10.4-18.2-7.3z"/></svg>